<svg width="48" height="48" viewBox="0 0 48 48" fill="none" xmlns="http://www.w3.org/2000/svg">
<path d="M42 12.75V35.25C42 36.0167 41.7333 36.6667 41.2 37.2C40.6667 37.7333 40.0167 38 39.25 38H8.75C7.98333 38 7.33333 37.7333 6.8 37.2C6.26667 36.6667 6 36.0167 6 35.25V12.75C6 11.9833 6.26667 11.3333 6.8 10.8C7.33333 10.2667 7.98333 10 8.75 10H39.25C40.0167 10 40.6667 10.2667 41.2 10.8C41.7333 11.3333 42 11.9833 42 12.75ZM7.55 17.85H40.45V12.75C40.45 12.45 40.325 12.175 40.075 11.925C39.825 11.675 39.55 11.55 39.25 11.55H8.75C8.45 11.55 8.175 11.675 7.925 11.925C7.675 12.175 7.55 12.45 7.55 12.75V17.85ZM7.55 21.85V35.25C7.55 35.55 7.675 35.825 7.925 36.075C8.175 36.325 8.45 36.45 8.75 36.45H39.25C39.55 36.45 39.825 36.325 40.075 36.075C40.325 35.825 40.45 35.55 40.45 35.25V21.85H7.55Z" fill="#F8336C"/>
</svg>
